<svg width="24" height="24" viewBox="0 0 24 24" fill="none" xmlns="http://www.w3.org/2000/svg">
<path d="M12 19.92C9.25 19.92 6.819 18.512 5.4 16.4C5.433 14.2 9.8 12.99 12 12.99C14.2 12.99 18.567 14.2 18.6 16.4C17.8728 17.4829 16.8904 18.3703 15.7395 18.9841C14.5886 19.5979 13.3044 19.9193 12 19.92ZM12 4.3C12.8752 4.3 13.7146 4.64768 14.3335 5.26655C14.9523 5.88542 15.3 6.72479 15.3 7.6C15.3 8.47521 14.9523 9.31458 14.3335 9.93345C13.7146 10.5523 12.8752 10.9 12 10.9C11.1248 10.9 10.2854 10.5523 9.66655 9.93345C9.04768 9.31458 8.7 8.47521 8.7 7.6C8.7 6.72479 9.04768 5.88542 9.66655 5.26655C10.2854 4.64768 11.1248 4.3 12 4.3ZM12 1C10.5555 1 9.12506 1.28452 7.79048 1.83733C6.4559 2.39013 5.24327 3.20038 4.22183 4.22183C2.15893 6.28473 1 9.08262 1 12C1 14.9174 2.15893 17.7153 4.22183 19.7782C5.24327 20.7996 6.4559 21.6099 7.79048 22.1627C9.12506 22.7155 10.5555 23 12 23C14.9174 23 17.7153 21.8411 19.7782 19.7782C21.8411 17.7153 23 14.9174 23 12C23 5.917 18.05 1 12 1Z" fill="#18D1D1"/>
</svg>
