<svg width="21" height="21" viewBox="0 0 21 21" fill="none" xmlns="http://www.w3.org/2000/svg">
<path d="M0 0.7C0 0.514348 0.0737498 0.336301 0.205025 0.205025C0.336301 0.0737498 0.514348 0 0.7 0H2.8C2.95614 4.31361e-05 3.10779 0.052291 3.23082 0.148435C3.35386 0.244578 3.44121 0.379097 3.479 0.5306L4.5 5H20.3C20.4028 5.0001 20.5043 5.02282 20.5973 5.06657C20.6903 5.11032 20.7725 5.17401 20.8382 5.25313C20.9038 5.33224 20.9512 5.42483 20.9769 5.52432C21.0027 5.62382 21.0063 5.72777 20.9874 5.8288L18.8874 14.8288C18.8574 14.9892 18.7722 15.1341 18.6467 15.2384C18.5212 15.3427 18.3632 15.3998 18.2 15.4H5.6C5.4368 15.3998 5.27879 15.3427 5.15327 15.2384C5.02776 15.1341 4.94263 14.9892 4.9126 14.8288L2.814 3.6498L2.254 1.4H0.7C0.514348 1.4 0.336301 1.32625 0.205025 1.19497C0.0737498 1.0637 0 0.885652 0 0.7ZM7 15.4C6.25739 15.4 5.5452 15.695 5.0201 16.2201C4.495 16.7452 4.2 17.4574 4.2 18.2C4.2 18.9426 4.495 19.6548 5.0201 20.1799C5.5452 20.705 6.25739 21 7 21C7.74261 21 8.4548 20.705 8.9799 20.1799C9.505 19.6548 9.8 18.9426 9.8 18.2C9.8 17.4574 9.505 16.7452 8.9799 16.2201C8.4548 15.695 7.74261 15.4 7 15.4ZM16.8 15.4C16.0574 15.4 15.3452 15.695 14.8201 16.2201C14.295 16.7452 14 17.4574 14 18.2C14 18.9426 14.295 19.6548 14.8201 20.1799C15.3452 20.705 16.0574 21 16.8 21C17.5426 21 18.2548 20.705 18.7799 20.1799C19.305 19.6548 19.6 18.9426 19.6 18.2C19.6 17.4574 19.305 16.7452 18.7799 16.2201C18.2548 15.695 17.5426 15.4 16.8 15.4ZM7 16.8C7.3713 16.8 7.7274 16.9475 7.98995 17.2101C8.2525 17.4726 8.4 17.8287 8.4 18.2C8.4 18.5713 8.2525 18.9274 7.98995 19.1899C7.7274 19.4525 7.3713 19.6 7 19.6C6.6287 19.6 6.2726 19.4525 6.01005 19.1899C5.7475 18.9274 5.6 18.5713 5.6 18.2C5.6 17.8287 5.7475 17.4726 6.01005 17.2101C6.2726 16.9475 6.6287 16.8 7 16.8ZM16.8 16.8C17.1713 16.8 17.5274 16.9475 17.7899 17.2101C18.0525 17.4726 18.2 17.8287 18.2 18.2C18.2 18.5713 18.0525 18.9274 17.7899 19.1899C17.5274 19.4525 17.1713 19.6 16.8 19.6C16.4287 19.6 16.0726 19.4525 15.8101 19.1899C15.5475 18.9274 15.4 18.5713 15.4 18.2C15.4 17.8287 15.5475 17.4726 15.8101 17.2101C16.0726 16.9475 16.4287 16.8 16.8 16.8Z" fill="#18D1D1"/>
</svg>
